<svg width="25" height="24" viewBox="0 0 25 24" fill="none" xmlns="http://www.w3.org/2000/svg">
<g id="Layout/grid-3">
<g id="Icon">
<path d="M1.92041 5.25C1.92041 4.00736 2.92777 3 4.17041 3H7.67041C8.91305 3 9.92041 4.00736 9.92041 5.25V8.75C9.92041 9.99264 8.91305 11 7.67041 11H4.17041C2.92777 11 1.92041 9.99264 1.92041 8.75V5.25Z" fill="#001524"/>
<path d="M1.92041 15.25C1.92041 14.0074 2.92777 13 4.17041 13H7.67041C8.91305 13 9.92041 14.0074 9.92041 15.25V18.75C9.92041 19.9926 8.91305 21 7.67041 21H4.17041C2.92777 21 1.92041 19.9926 1.92041 18.75V15.25Z" fill="#001524"/>
<path d="M13.9204 6.75H18.9204C19.3346 6.75 19.6704 6.41421 19.6704 6C19.6704 5.58579 19.3346 5.25 18.9204 5.25H13.9204C13.5062 5.25 13.1704 5.58579 13.1704 6C13.1704 6.41421 13.5062 6.75 13.9204 6.75Z" fill="#001524"/>
<path d="M13.9204 9.75H21.9204C22.3346 9.75 22.6704 9.41421 22.6704 9C22.6704 8.58579 22.3346 8.25 21.9204 8.25H13.9204C13.5062 8.25 13.1704 8.58579 13.1704 9C13.1704 9.41421 13.5062 9.75 13.9204 9.75Z" fill="#001524"/>
<path d="M13.9204 16.75H18.9204C19.3346 16.75 19.6704 16.4142 19.6704 16C19.6704 15.5858 19.3346 15.25 18.9204 15.25H13.9204C13.5062 15.25 13.1704 15.5858 13.1704 16C13.1704 16.4142 13.5062 16.75 13.9204 16.75Z" fill="#001524"/>
<path d="M21.9204 18.25H13.9204C13.5062 18.25 13.1704 18.5858 13.1704 19C13.1704 19.4142 13.5062 19.75 13.9204 19.75H21.9204C22.3346 19.75 22.6704 19.4142 22.6704 19C22.6704 18.5858 22.3346 18.25 21.9204 18.25Z" fill="#001524"/>
</g>
</g>
</svg>
